<svg xmlns="http://www.w3.org/2000/svg" width="88" height="88" viewBox="0 0 88 88">
  <g id="Group_35681" data-name="Group 35681" transform="translate(-807 -1931)">
    <rect id="Fill" width="88" height="88" rx="44" transform="translate(807 1931)" fill="#ecf2ff"/>
    <path id="brain-fill-svgrepo-com" d="M46.563,41.35a9.017,9.017,0,0,0-5.142-8.132V31.709a7.71,7.71,0,0,0-14.14-4.257,7.71,7.71,0,0,0-14.14,4.257v1.509a9,9,0,0,0,0,16.26v.227a7.71,7.71,0,0,0,14.14,4.257,7.71,7.71,0,0,0,14.14-4.257v-.227A9.009,9.009,0,0,0,46.563,41.35Zm-25.709,13.5a5.149,5.149,0,0,1-5.112-4.588A9.026,9.026,0,0,0,17,50.348h1.285a1.285,1.285,0,1,0,0-2.571H17a6.428,6.428,0,0,1-2.143-12.489,1.285,1.285,0,0,0,.857-1.212V31.709a5.142,5.142,0,0,1,10.283,0V43.963a7.681,7.681,0,0,0-5.142-1.97,1.285,1.285,0,1,0,0,2.571,5.142,5.142,0,0,1,0,10.283Zm16.711-7.07H36.279a1.285,1.285,0,0,0,0,2.571h1.285a9.027,9.027,0,0,0,1.255-.089,5.142,5.142,0,1,1-5.112-5.695,1.285,1.285,0,0,0,0-2.571,7.681,7.681,0,0,0-5.142,1.97V31.709a5.142,5.142,0,0,1,10.283,0v2.367a1.285,1.285,0,0,0,.857,1.212,6.428,6.428,0,0,1-2.143,12.489Zm-21.21-7.07a1.285,1.285,0,1,1,0-2.571,3.217,3.217,0,0,0,3.214-3.214V33.637a1.285,1.285,0,1,1,2.571,0v1.285a5.791,5.791,0,0,1-5.784,5.784Zm23.138-1.285a1.285,1.285,0,0,1-1.285,1.285,5.791,5.791,0,0,1-5.784-5.784V33.637a1.285,1.285,0,1,1,2.571,0v1.285a3.217,3.217,0,0,0,3.214,3.214,1.285,1.285,0,0,1,1.285,1.285Z" transform="translate(824 1934.004)" fill="#3e72ff" stroke="#3e72ff" stroke-width="0.5"/>
  </g>
</svg>
