<svg xmlns="http://www.w3.org/2000/svg" width="227.123" height="159.177" viewBox="0 0 227.123 159.177">
  <g id="Abstract" transform="translate(47.792 -131.172)">
    <path id="Vector" d="M58.057,34.574a2.768,2.768,0,0,1-2.235,1.884L39.071,38.893l-7.492,15.18a2.768,2.768,0,0,1-4.965,0l-7.492-15.18L2.37,36.458A2.768,2.768,0,0,1,.836,31.737L12.958,19.921,10.1,3.236A2.768,2.768,0,0,1,14.113.318L29.1,8.2,44.08.318A2.768,2.768,0,0,1,48.1,3.236L45.235,19.921,57.357,31.737a2.769,2.769,0,0,1,.7,2.838Z" transform="translate(104.622 204.699) rotate(-21.844)" fill="#fcb901"/>
    <path id="Vector-2" data-name="Vector" d="M129.216,3.865c-6.95,11.512-14.335,22.806-21.286,34.317-1.3,2.172-5,1.3-4.779-1.3,0-5,.217-9.774.217-14.77-3.475,3.692-4.344,8.037-5,13.249-.434,2.172-1.3,4.562-3.692,5.213-3.692,1.086-7.819-2.606-10.643-4.561-7.168-5-13.684-10.86-21.5-14.987-9.122-4.561-9.34,1.955-7.385,9.122a88.992,88.992,0,0,0,9.34,21.937c6.95,11.729,14.987,23.892,16.942,37.575,1.086,7.6-2.824,19.114-12.381,18.679-11.728-.434-25.2-9.122-32.8-17.81C31.911,86.183,7.15,53.6,4.761,72.282c-1.738,13.684,9.557,30.408,16.29,41.7a1.491,1.491,0,0,1-2.389,1.738A93.551,93.551,0,0,1,.417,78.8c-1.52-7.168.869-20.417,11.294-17.593,12.163,3.258,20.2,16.942,28.019,26.064,4.778,5.864,12.38,10.208,18.9,13.684,13.9,7.385,20.2-3.475,16.724-16.073C71.007,69.459,59.93,56.861,53.631,42.309,51.459,37.1,43.64,19.72,52.11,15.376c9.774-5,22.806,7.385,29.756,12.815-.434-.217,11.077,9.122,11.729,7.167s.652-4.344,1.086-6.516a18.082,18.082,0,0,1,5.43-9.991,59.214,59.214,0,0,1-12.38-.652c-2.172-.434-2.389-3.692-.652-4.778C99.46,6.471,113.361,4.733,126.61.172,128.565-.7,130.519,1.91,129.216,3.865ZM105.759,14.942a1.5,1.5,0,0,1,1.52,1.955,2.281,2.281,0,0,1,1.086,1.955v8.688c4.344-6.95,8.688-13.684,13.032-20.634-8.254,2.389-16.724,4.127-24.543,7.385C99.677,14.507,102.718,14.724,105.759,14.942Z" transform="translate(102.76 167.039) rotate(107.977)" fill="#e3eaf3"/>
  </g>
</svg>
