<svg id="Group_545" data-name="Group 545" xmlns="http://www.w3.org/2000/svg" width="167.756" height="34.576" viewBox="0 0 167.756 34.576">
  <g id="Group">
    <path id="Vector" d="M15.96,11.709a2.85,2.85,0,0,0-.737-.509,6.651,6.651,0,0,0,1.518-4.285,6.828,6.828,0,0,0-2.6-5.346A7.731,7.731,0,0,0,9.021,0H0V25.54H10.149A8.632,8.632,0,0,0,15.917,23.8a7.706,7.706,0,0,0,2.949-6.024A7.557,7.557,0,0,0,15.96,11.709ZM4.51,4.115H8.2c2.082,0,2.776.424,3.166.891a2.815,2.815,0,0,1,.781,1.909,2.7,2.7,0,0,1-.781,1.909c-.434.467-1.084.891-3.166.891H4.51Zm8.717,16.121c-.607.594-1.518,1.145-3.9,1.145H4.51V13.873H9.368c2.385,0,3.253.552,3.86,1.145a3.681,3.681,0,0,1,0,5.218Z" transform="translate(0 0.255)" fill="#3e4581"/>
    <path id="Vector-2" data-name="Vector" d="M0,0H4.25V17.437H0Z" transform="translate(33.569 8.358)" fill="#3e4581"/>
    <path id="Vector-3" data-name="Vector" d="M2.646,0a2.609,2.609,0,1,0,0,5.218A2.611,2.611,0,0,0,5.335,2.63,2.674,2.674,0,0,0,2.646,0Z" transform="translate(33.005 0.212)" fill="#3e4581"/>
    <path id="Vector-4" data-name="Vector" d="M13.878,1.485A8.582,8.582,0,0,0,8.934,0a8.815,8.815,0,0,0-4.38,1.1A9.146,9.146,0,0,0,0,9.036a8.939,8.939,0,0,0,4.554,7.891,9.3,9.3,0,0,0,4.467,1.145,8.146,8.146,0,0,0,4.727-1.4V16.8a7.154,7.154,0,0,1-.867,4.073,4.33,4.33,0,0,1-3.817,1.739,6.374,6.374,0,0,1-5.291-2.8l-.26-.339-3.079,2.8.173.255c1.214,1.867,4.207,4.03,8.631,4.03a8.4,8.4,0,0,0,7.72-4.327A11.857,11.857,0,0,0,18,16.588V.339h-4.12V1.485Zm-.13,10.564A5.551,5.551,0,0,1,9.455,14.17,5.12,5.12,0,0,1,4.207,9.079,4.949,4.949,0,0,1,9.281,3.988a5.9,5.9,0,0,1,4.467,2.121Z" transform="translate(39.944 8.018)" fill="#3e4581"/>
    <path id="Vector-5" data-name="Vector" d="M8.848,7.806a8.14,8.14,0,0,0-4.6,1.4V0H0V25.582H4.25V13.915a5.965,5.965,0,0,1,4.51-2.121,4.11,4.11,0,0,1,3.209,1.485c.477.594.911,1.4.911,3.606v8.7h4.25V17.055c0-2.8-.52-4.624-1.735-6.152A8.4,8.4,0,0,0,8.848,7.806Z" transform="translate(60.328 0.212)" fill="#3e4581"/>
    <path id="Vector-6" data-name="Vector" d="M13.445,1.1A8.815,8.815,0,0,0,9.064,0,8.582,8.582,0,0,0,4.12,1.485V.382H0V26.3H4.25V16.715a8.146,8.146,0,0,0,4.727,1.4,9.174,9.174,0,0,0,4.467-1.145A8.989,8.989,0,0,0,18,9.079,9.175,9.175,0,0,0,13.445,1.1ZM8.544,14.17A5.686,5.686,0,0,1,4.25,12.049V6.067A5.831,5.831,0,0,1,8.717,3.945a4.974,4.974,0,0,1,5.074,5.091A5.128,5.128,0,0,1,8.544,14.17Z" transform="translate(91.728 8.018)" fill="#3e4581"/>
    <path id="Vector-7" data-name="Vector" d="M8.674,0C3.643,0,0,3.818,0,9.079a8.933,8.933,0,0,0,9.194,9.079,9.2,9.2,0,0,0,7.46-3.267l.217-.3-2.819-2.588-.26.3a5.818,5.818,0,0,1-4.6,2.121A5.1,5.1,0,0,1,4.12,10.182H17.131l.043-.339a5.633,5.633,0,0,0,.043-.764C17.218,3.9,13.531,0,8.674,0ZM4.554,6.533A4.569,4.569,0,0,1,8.8,3.691a4.36,4.36,0,0,1,3.947,2.842Z" transform="translate(111.592 8.018)" fill="#3e4581"/>
    <path id="Vector-8" data-name="Vector" d="M13.878,1.485A8.582,8.582,0,0,0,8.934,0a8.815,8.815,0,0,0-4.38,1.1A9.146,9.146,0,0,0,0,9.036a8.939,8.939,0,0,0,4.554,7.891,9.3,9.3,0,0,0,4.467,1.145,8.7,8.7,0,0,0,4.857-1.442v1.1H18V.339h-4.12Zm-.13,10.564A5.551,5.551,0,0,1,9.455,14.17,5.12,5.12,0,0,1,4.207,9.079,4.949,4.949,0,0,1,9.281,3.988a5.9,5.9,0,0,1,4.467,2.121Z" transform="translate(130.588 8.018)" fill="#3e4581"/>
    <path id="Vector-9" data-name="Vector" d="M0,0H4.25V25.794H0Z" transform="translate(163.506)" fill="#3e4581"/>
    <path id="Vector-10" data-name="Vector" d="M9.455,21.764a8.825,8.825,0,0,1-2.125.255,3.582,3.582,0,0,1-2.559-.933,3.613,3.613,0,0,1-.52-2.333V11.879h5.2V8.146H4.25V0H0V18.5a7.187,7.187,0,0,0,1.6,5.133A7.241,7.241,0,0,0,7.2,25.879a13.1,13.1,0,0,0,2.255-.212Z" transform="translate(79.888 0.212)" fill="#3e4581"/>
    <g id="Group-2" data-name="Group" transform="translate(20.688 8.018)">
      <path id="Vector-11" data-name="Vector" d="M10.626.17A8.153,8.153,0,0,0,8.848,0a8.14,8.14,0,0,0-4.6,1.4V.339H0V17.776H4.25V6.109a5.965,5.965,0,0,1,4.51-2.121,4.988,4.988,0,0,1,1.908.424Z" fill="#3e4581"/>
    </g>
    <g id="Group-3" data-name="Group" transform="translate(150.972 8.018)">
      <path id="Vector-12" data-name="Vector" d="M10.626.17A8.153,8.153,0,0,0,8.848,0a8.14,8.14,0,0,0-4.6,1.4V.339H0V17.776H4.25V6.109a5.965,5.965,0,0,1,4.51-2.121,4.988,4.988,0,0,1,1.908.424Z" fill="#3e4581"/>
    </g>
  </g>
</svg>
