<svg xmlns="http://www.w3.org/2000/svg" width="85" height="88" viewBox="0 0 85 88">
  <g id="Group_35679" data-name="Group 35679" transform="translate(-1276 -1478)">
    <rect id="Fill" width="85" height="88" rx="40" transform="translate(1276 1478)" fill="#ecf2ff"/>
    <g id="Group_194" data-name="Group 194" transform="translate(1300.416 1501.906)">
      <path id="Rectangle_193_Stroke_" data-name="Rectangle 193 (Stroke)" d="M6.028,4.019A2.009,2.009,0,0,0,4.019,6.028V34.16a2.009,2.009,0,0,0,2.009,2.009H30.141A2.009,2.009,0,0,0,32.15,34.16V20.094a2.009,2.009,0,0,1,4.019,0V34.16a6.028,6.028,0,0,1-6.028,6.028H6.028A6.028,6.028,0,0,1,0,34.16V6.028A6.028,6.028,0,0,1,6.028,0H18.085a2.009,2.009,0,0,1,0,4.019Z" fill="#3e72ff"/>
      <path id="Union" d="M1.536,16.921a2.009,2.009,0,0,0-.568,1.137L.021,24.689a2.009,2.009,0,0,0,2.273,2.273l6.631-.947a2.009,2.009,0,0,0,1.137-.568L25.217,10.291a6.028,6.028,0,1,0-8.525-8.525Zm16.577-5.21L7.693,22.131,4.378,22.6l.474-3.315L15.271,8.87ZM20.955,8.87,18.113,6.028l1.421-1.421a2.009,2.009,0,1,1,2.842,2.842Z" transform="translate(8.639 2.497)" fill="#3e72ff"/>
    </g>
  </g>
</svg>
