<svg id="Review" xmlns="http://www.w3.org/2000/svg" width="148.988" height="25.077" viewBox="0 0 148.988 25.077">
  <path id="Star_1" data-name="Star 1" d="M12.6,2.589a1,1,0,0,1,1.88,0l2.213,6.1a1,1,0,0,0,.915.658l6.585.164a1,1,0,0,1,.573,1.8l-5.184,3.867a1,1,0,0,0-.359,1.093L21.1,22.392a1,1,0,0,1-1.513,1.123L14.1,19.842a1,1,0,0,0-1.113,0L7.505,23.515a1,1,0,0,1-1.513-1.123L7.86,16.268A1,1,0,0,0,7.5,15.174L2.318,11.308a1,1,0,0,1,.573-1.8l6.585-.164a1,1,0,0,0,.915-.658Z" fill="#fbb040"/>
  <path id="Star_2" data-name="Star 2" d="M12.6,2.589a1,1,0,0,1,1.88,0l2.213,6.1a1,1,0,0,0,.915.658l6.585.164a1,1,0,0,1,.573,1.8l-5.184,3.867a1,1,0,0,0-.359,1.093L21.1,22.392a1,1,0,0,1-1.513,1.123L14.1,19.842a1,1,0,0,0-1.113,0L7.505,23.515a1,1,0,0,1-1.513-1.123L7.86,16.268A1,1,0,0,0,7.5,15.174L2.318,11.308a1,1,0,0,1,.573-1.8l6.585-.164a1,1,0,0,0,.915-.658Z" transform="translate(30.475)" fill="#fbb040"/>
  <path id="Star_3" data-name="Star 3" d="M12.6,2.589a1,1,0,0,1,1.88,0l2.213,6.1a1,1,0,0,0,.915.658l6.585.164a1,1,0,0,1,.573,1.8l-5.184,3.867a1,1,0,0,0-.359,1.093L21.1,22.392a1,1,0,0,1-1.513,1.123L14.1,19.842a1,1,0,0,0-1.113,0L7.505,23.515a1,1,0,0,1-1.513-1.123L7.86,16.268A1,1,0,0,0,7.5,15.174L2.318,11.308a1,1,0,0,1,.573-1.8l6.585-.164a1,1,0,0,0,.915-.658Z" transform="translate(60.952)" fill="#fbb040"/>
  <path id="Star_4" data-name="Star 4" d="M12.6,2.589a1,1,0,0,1,1.88,0l2.213,6.1a1,1,0,0,0,.915.658l6.585.164a1,1,0,0,1,.573,1.8l-5.184,3.867a1,1,0,0,0-.359,1.093L21.1,22.392a1,1,0,0,1-1.513,1.123L14.1,19.842a1,1,0,0,0-1.113,0L7.505,23.515a1,1,0,0,1-1.513-1.123L7.86,16.268A1,1,0,0,0,7.5,15.174L2.318,11.308a1,1,0,0,1,.573-1.8l6.585-.164a1,1,0,0,0,.915-.658Z" transform="translate(91.422)" fill="#fbb040"/>
  <path id="Star_5" data-name="Star 5" d="M12.6,2.589a1,1,0,0,1,1.88,0l2.213,6.1a1,1,0,0,0,.915.658l6.585.164a1,1,0,0,1,.573,1.8l-5.184,3.867a1,1,0,0,0-.359,1.093L21.1,22.392a1,1,0,0,1-1.513,1.123L14.1,19.842a1,1,0,0,0-1.113,0L7.505,23.515a1,1,0,0,1-1.513-1.123L7.86,16.268A1,1,0,0,0,7.5,15.174L2.318,11.308a1,1,0,0,1,.573-1.8l6.585-.164a1,1,0,0,0,.915-.658Z" transform="translate(121.899)" fill="#fbb040"/>
</svg>
