<svg id="instagram" xmlns="http://www.w3.org/2000/svg" width="21" height="21" viewBox="0 0 21 21">
  <path id="Path_37525" data-name="Path 37525" d="M20.947,6.174a7.673,7.673,0,0,0-.488-2.548A5.38,5.38,0,0,0,17.385.554,7.7,7.7,0,0,0,14.837.066C13.713.012,13.356,0,10.5,0S7.3.012,6.175.062A7.678,7.678,0,0,0,3.627.55,5.125,5.125,0,0,0,1.764,1.764,5.17,5.17,0,0,0,.554,3.622,7.693,7.693,0,0,0,.066,6.17C.012,7.294,0,7.651,0,10.5S.012,13.71.062,14.83A7.671,7.671,0,0,0,.55,17.378,5.379,5.379,0,0,0,3.623,20.45a7.7,7.7,0,0,0,2.548.488c1.12.049,1.477.062,4.329.062s3.209-.012,4.329-.062a7.674,7.674,0,0,0,2.548-.488,5.371,5.371,0,0,0,3.073-3.073,7.7,7.7,0,0,0,.488-2.548c.049-1.12.062-1.477.062-4.328S21,7.294,20.947,6.174Zm-1.891,8.574a5.756,5.756,0,0,1-.361,1.949A3.484,3.484,0,0,1,16.7,18.691a5.78,5.78,0,0,1-1.949.361c-1.108.049-1.44.062-4.243.062s-3.139-.012-4.243-.062a5.756,5.756,0,0,1-1.949-.361,3.233,3.233,0,0,1-1.206-.784A3.265,3.265,0,0,1,2.326,16.7a5.776,5.776,0,0,1-.361-1.949c-.049-1.108-.062-1.44-.062-4.242s.012-3.138.062-4.242A5.752,5.752,0,0,1,2.326,4.32a3.192,3.192,0,0,1,.788-1.206A3.261,3.261,0,0,1,4.321,2.33,5.782,5.782,0,0,1,6.27,1.969c1.108-.049,1.44-.062,4.243-.062s3.139.012,4.243.062A5.758,5.758,0,0,1,16.7,2.33a3.229,3.229,0,0,1,1.206.783,3.264,3.264,0,0,1,.784,1.206,5.779,5.779,0,0,1,.361,1.949c.049,1.108.061,1.44.061,4.242S19.1,13.64,19.055,14.748Z" fill="#3e4581"/>
  <path id="Path_37526" data-name="Path 37526" d="M10.5,6A4.5,4.5,0,1,0,15,10.5,4.5,4.5,0,0,0,10.5,6Zm0,7.419A2.919,2.919,0,1,1,13.419,10.5,2.92,2.92,0,0,1,10.5,13.419Z" fill="#3e4581"/>
  <path id="Path_37527" data-name="Path 37527" d="M18,5.5A1.5,1.5,0,1,1,16.5,4,1.5,1.5,0,0,1,18,5.5Z" fill="#3e4581"/>
</svg>
