<svg xmlns="http://www.w3.org/2000/svg" width="21" height="21" viewBox="0 0 21 21">
  <path id="linkedin" d="M19.486,0H1.515A1.514,1.514,0,0,0,0,1.515V19.486A1.514,1.514,0,0,0,1.515,21H19.486A1.514,1.514,0,0,0,21,19.486V1.515A1.514,1.514,0,0,0,19.486,0ZM7.449,15.873H4.892V8.18H7.449ZM6.17,7.129H6.154a1.333,1.333,0,1,1,.034-2.658A1.333,1.333,0,1,1,6.17,7.129Zm10.5,8.744H14.113V11.757c0-1.034-.37-1.74-1.3-1.74a1.4,1.4,0,0,0-1.312.935,1.752,1.752,0,0,0-.084.624v4.3H8.864S8.9,8.9,8.864,8.18h2.557V9.269A2.539,2.539,0,0,1,13.726,8c1.682,0,2.944,1.1,2.944,3.463Z" fill="#3e4581"/>
</svg>
