<svg xmlns="http://www.w3.org/2000/svg" width="285" height="402.532" viewBox="0 0 285 402.532">
  <g id="decorator" transform="translate(-1184.219 -5955.149)">
    <path id="Vector" d="M109.9,65.451a5.241,5.241,0,0,1-4.23,3.567L73.962,73.625,59.78,102.361a5.24,5.24,0,0,1-9.4,0L36.2,73.625,4.487,69.017a5.24,5.24,0,0,1-2.9-8.939L24.53,37.711,19.113,6.126A5.24,5.24,0,0,1,26.716.6L55.081,15.514,83.445.6a5.241,5.241,0,0,1,7.6,5.525L85.632,37.711l22.947,22.368a5.241,5.241,0,0,1,1.326,5.372Z" transform="translate(1256.434 5955.149) rotate(21.844)" fill="#fcb901" opacity="0.6"/>
    <path id="Vector-2" data-name="Vector" d="M244.61,7.316c-13.157,21.792-27.137,43.172-40.294,64.963-2.467,4.112-9.457,2.468-9.046-2.467,0-9.457.411-18.5.411-27.959-6.579,6.99-8.223,15.214-9.457,25.081-.822,4.112-2.467,8.635-6.989,9.868-6.99,2.056-14.8-4.934-20.147-8.634-13.568-9.457-25.9-20.559-40.705-28.371-17.269-8.634-17.68,3.7-13.98,17.269,3.7,14.391,10.279,28.782,17.68,41.528,13.157,22.2,28.371,45.228,32.071,71.132,2.056,14.391-5.345,36.183-23.437,35.36-22.2-.822-47.7-17.269-62.086-33.716-8.223-8.223-55.1-69.9-59.619-34.538C5.723,162.735,27.1,194.4,39.849,215.776c1.645,2.878-2.467,5.756-4.523,3.289C19.292,199.33,6.546,174.249.789,149.167c-2.878-13.568,1.645-38.65,21.381-33.3,23.025,6.167,38.238,32.071,53.04,49.34,9.046,11.1,23.436,19.325,35.771,25.9,26.315,13.98,38.238-6.579,31.66-30.426-8.223-29.193-29.193-53.04-41.116-80.588-4.112-9.868-18.914-42.761-2.878-50.985,18.5-9.457,43.172,13.98,56.33,24.259-.822-.411,20.969,17.269,22.2,13.568s1.234-8.223,2.057-12.334c1.644-7.812,4.934-13.98,10.279-18.914a112.093,112.093,0,0,1-23.436-1.234c-4.112-.822-4.523-6.99-1.233-9.046C188.281,12.249,214.6,8.96,239.677.326,243.377-1.319,247.077,3.615,244.61,7.316ZM200.2,28.285a2.841,2.841,0,0,1,2.878,3.7,4.318,4.318,0,0,1,2.056,3.7V52.132c8.223-13.157,16.447-25.9,24.67-39.061-15.624,4.523-31.66,7.812-46.461,13.98C188.692,27.463,194.448,27.874,200.2,28.285Z" transform="matrix(-0.309, -0.951, 0.951, -0.309, 1259.959, 6357.682)" fill="#d5dff3"/>
  </g>
</svg>
