<svg xmlns="http://www.w3.org/2000/svg" width="74" height="74" viewBox="0 0 74 74">
  <g id="Group_35684" data-name="Group 35684" transform="translate(-9812 -3213.001)">
    <rect id="Rectangle_3720" data-name="Rectangle 3720" width="74" height="74" rx="12" transform="translate(9812 3213.001)" fill="#fff" opacity="0.5"/>
    <path id="Vector" d="M16.223,22.031a1.472,1.472,0,0,0-1.9,0l-4.679,4.14v-25A1.268,1.268,0,0,0,8.309,0a1.268,1.268,0,0,0-1.34,1.18v25L2.29,22.035a1.472,1.472,0,0,0-1.9,0,1.084,1.084,0,0,0,0,1.669l6.969,6.167h0a1.473,1.473,0,0,0,1.9,0h0L16.228,23.7A1.084,1.084,0,0,0,16.223,22.031Z" transform="translate(9834 3258.618) rotate(-90)" fill="#fff"/>
  </g>
</svg>
