<svg id="Group_544" data-name="Group 544" xmlns="http://www.w3.org/2000/svg" width="208.834" height="27.62" viewBox="0 0 208.834 27.62">
  <g id="Group">
    <g id="Group-2" data-name="Group" transform="translate(22.809)">
      <g id="Group-3" data-name="Group" transform="translate(62.59)">
        <path id="Vector" d="M0,0H6.582V27.054H0Z" fill="#3e4581"/>
      </g>
      <g id="Group-4" data-name="Group" transform="translate(71.868)">
        <path id="Vector-2" data-name="Vector" d="M3.178,11.559H0V7.391H3.178C3.178,1.743,5.194,0,10.814,0c1.041,0,2.127.075,3.173.113V4.661a13.962,13.962,0,0,0-1.779-.114c-1.51,0-2.44.189-2.44,1.97v.875h3.95v4.167H9.767v15.5H3.178Z" fill="#3e4581"/>
      </g>
      <g id="Group-5" data-name="Group" transform="translate(97.75 6.82)">
        <path id="Vector-3" data-name="Vector" d="M6.279,13.753a2.624,2.624,0,0,0,1.085,2.2,4.168,4.168,0,0,0,2.44.684c1.277,0,3.1-.533,3.1-2.085,0-1.513-2.054-1.821-3.211-2.089C5.541,11.443.352,11.33.352,6.023.352,1.288,5.578,0,9.533,0c4.413,0,9.022,1.252,9.253,6.363h-6.08a1.836,1.836,0,0,0-.854-1.7,3.948,3.948,0,0,0-2.093-.493c-1.079,0-2.825.113-2.825,1.478,0,1.854,4.417,2.2,7.44,2.84,4.065.8,5.111,3.678,5.111,5.305,0,5.269-5.111,7.009-9.644,7.009C5.078,20.8.2,19.248,0,13.753Z" fill="#3e4581"/>
      </g>
      <g id="Group-6" data-name="Group" transform="translate(119.605)">
        <path id="Vector-4" data-name="Vector" d="M0,0H6.587V10.077h.078c1.007-2,3.717-3.257,6.119-3.257,6.7,0,7.243,4.773,7.243,7.618V27.054H13.444V17.544c0-2.691.309-5.422-3.294-5.422-2.479,0-3.564,2.05-3.564,4.207V27.054H0Z" fill="#3e4581"/>
      </g>
      <g id="Group-7" data-name="Group" transform="translate(141.925 6.82)">
        <path id="Vector-5" data-name="Vector" d="M6.587,11.975c.116,2.689,1.707,4.472,4.5,4.472a3.947,3.947,0,0,0,3.752-2.161H21C19.8,18.833,15.5,20.8,11,20.8c-6.543,0-11-3.863-11-10.456C0,4.319,4.923,0,10.849,0c7.2,0,10.806,5.3,10.5,11.975Zm8.174-3.6a4.02,4.02,0,0,0-3.911-4.015c-2.324,0-3.872,1.63-4.262,4.015Z" fill="#3e4581"/>
      </g>
      <g id="Group-8" data-name="Group" transform="translate(165.961 7.011)">
        <path id="Vector-6" data-name="Vector" d="M0,.38H6.394V3.823h.077A6.073,6.073,0,0,1,12.513,0a7.225,7.225,0,0,1,1.553.148V6.024a9.464,9.464,0,0,0-2.522-.38A4.577,4.577,0,0,0,6.587,10.3v9.738H0Z" fill="#3e4581"/>
      </g>
      <g id="Group-9" data-name="Group" transform="translate(88.652 0.101)">
        <path id="Vector-7" data-name="Vector" d="M0,7.29H6.592V26.953H0ZM6.568,0H0V4.559H6.568Z" fill="#3e4581"/>
      </g>
      <g id="Group-10" data-name="Group" transform="translate(179.458 22.479)">
        <path id="Vector-8" data-name="Vector" d="M6.568,4.561H0V0H6.568Z" fill="#3e4581"/>
      </g>
      <g id="Group-11" data-name="Group" transform="translate(0 6.82)">
        <path id="Vector-9" data-name="Vector" d="M6.582,11.975c.115,2.689,1.707,4.472,4.494,4.472a3.944,3.944,0,0,0,3.756-2.161H20.99c-1.2,4.547-5.5,6.514-9.991,6.514-6.544,0-11-3.863-11-10.456C0,4.319,4.918,0,10.844,0c7.2,0,10.806,5.3,10.5,11.975Zm8.173-3.6a4.02,4.02,0,0,0-3.91-4.015c-2.325,0-3.872,1.63-4.263,4.015Z" fill="#3e4581"/>
      </g>
      <g id="Group-12" data-name="Group" transform="translate(22.865 6.82)">
        <path id="Vector-10" data-name="Vector" d="M13.863,20.234a7.615,7.615,0,0,1-.386-1.859A9.184,9.184,0,0,1,6.857,20.8C3.019,20.8,0,18.9,0,14.852c0-6.4,7.122-5.906,11.7-6.82,1.119-.226,1.741-.606,1.741-1.818,0-1.476-1.823-2.047-3.178-2.047-1.818,0-2.98.795-3.294,2.462H.81A6.013,6.013,0,0,1,3.949,1.365,13.5,13.5,0,0,1,10.339,0c4.769,0,9.374,1.021,9.374,6.592V20.234Zm-4.528-3.41c3.134,0,4.181-1.745,4.027-5.8-.931.568-2.633.681-4.065,1.062-1.475.34-2.714.949-2.714,2.5C6.582,16.177,7.86,16.824,9.335,16.824Z" fill="#3e4581"/>
      </g>
      <g id="Group-13" data-name="Group" transform="translate(46.055 7.011)">
        <path id="Vector-11" data-name="Vector" d="M0,.38H6.394V3.823h.072A6.074,6.074,0,0,1,12.509,0a7.217,7.217,0,0,1,1.552.148V6.024a9.454,9.454,0,0,0-2.517-.38A4.579,4.579,0,0,0,6.582,10.3v9.738H0Z" fill="#3e4581"/>
      </g>
    </g>
    <g id="Group-14" data-name="Group" transform="translate(0 0.124)">
      <g id="Group-15" data-name="Group">
        <path id="Vector-12" data-name="Vector" d="M0,0H12.871C18.09,0,23,2.343,23,8.834c0,6.8-3.964,9.446-10.126,9.446H7.3v9.139H0ZM7.3,12.747h4.47c2.278,0,3.925-.92,3.925-3.418,0-2.572-1.686-3.6-3.925-3.6H7.3Z" fill="#3e4581"/>
      </g>
    </g>
    <g id="Group-16" data-name="Group" transform="translate(202.134 22.542)">
      <g id="Group-17" data-name="Group">
        <path id="Vector-13" data-name="Vector" d="M6.607,4.588H0V0H6.607Z" fill="#3e4581"/>
      </g>
    </g>
  </g>
</svg>
