<svg xmlns="http://www.w3.org/2000/svg" width="472.839" height="406.894" viewBox="0 0 472.839 406.894">
  <g id="Group_35677" data-name="Group 35677" transform="translate(-1447 -6452.648)">
    <path id="Vector" d="M146.713,87.371a7,7,0,0,1-5.647,4.761L98.733,98.283,79.8,136.643a7,7,0,0,1-12.546,0L48.323,98.283,5.99,92.131A7,7,0,0,1,2.113,80.2L32.746,50.34,25.514,8.178A7,7,0,0,1,35.664.8L73.528,20.71,111.392.8a7,7,0,0,1,10.151,7.375L114.311,50.34,144.943,80.2a7,7,0,0,1,1.77,7.171Z" transform="translate(1635.791 6583.1) rotate(158.156)" fill="#fcb901"/>
    <path id="Vector-2" data-name="Vector" d="M326.533,9.766c-17.564,29.09-36.225,57.631-53.789,86.72-3.293,5.489-12.624,3.294-12.076-3.293,0-12.624.549-24.7.549-37.323-8.782,9.331-10.977,20.309-12.624,33.481-1.1,5.489-3.293,11.527-9.33,13.173C229.932,105.269,219.5,95.938,212.368,91,194.256,78.374,177.79,63.554,158.03,53.125c-23.053-11.526-23.6,4.94-18.662,23.052,4.94,19.21,13.722,38.421,23.6,55.436,17.564,29.639,37.873,60.376,42.812,94.954,2.744,19.21-7.135,48.3-31.286,47.2-29.638-1.1-63.669-23.053-82.879-45.007-10.977-10.977-73.549-93.308-79.586-46.105C7.639,217.237,36.181,259.5,53.2,288.041c2.2,3.842-3.293,7.684-6.038,4.391-21.405-26.345-38.42-59.826-46.1-93.307-3.842-18.113,2.2-51.594,28.541-44.458,30.737,8.233,51.045,42.812,70.8,65.864,12.075,14.819,31.286,25.8,47.752,34.579,35.128,18.662,51.045-8.782,42.263-40.616-10.977-38.97-38.97-70.8-54.887-107.578-5.489-13.173-25.248-57.081-3.842-68.06,24.7-12.624,57.631,18.662,75.2,32.383-1.1-.549,27.992,23.053,29.639,18.112s1.647-10.976,2.745-16.465c2.195-10.429,6.586-18.662,13.722-25.248A149.636,149.636,0,0,1,221.7,45.991c-5.489-1.1-6.038-9.331-1.647-12.075C251.339,16.352,286.467,11.961,319.948.435,324.887-1.761,329.826,4.826,326.533,9.766ZM267.255,37.758A3.792,3.792,0,0,1,271.1,42.7a5.764,5.764,0,0,1,2.744,4.94V69.592c10.977-17.564,21.955-34.58,32.932-52.143-20.857,6.038-42.263,10.429-62.021,18.662C251.887,36.66,259.571,37.209,267.255,37.758Z" transform="translate(1640.496 6859.542) rotate(-107.977)" fill="#d5dff3"/>
  </g>
</svg>
