<svg id="Group_542" data-name="Group 542" xmlns="http://www.w3.org/2000/svg" width="219.204" height="45.026" viewBox="0 0 219.204 45.026">
  <g id="Group">
    <g id="Group-2" data-name="Group" transform="translate(163.125 8.965)">
      <path id="Vector" d="M12.4,21.592a12.227,12.227,0,0,0,.443-4,12.386,12.386,0,0,0-.443-4,4.1,4.1,0,0,0-4.268-2.879A4.093,4.093,0,0,0,3.906,13.6a13.529,13.529,0,0,0-.443,4,13.184,13.184,0,0,0,.443,4,4.124,4.124,0,0,0,4.229,2.919A4.129,4.129,0,0,0,12.4,21.592Zm.845,5.6a.379.379,0,0,1-.4-.4V24.951h-.04c-.926,1.519-2.577,2.678-5.477,2.678-3.342,0-5.678-1.559-6.644-4.6A15.837,15.837,0,0,1,0,17.594a15.738,15.738,0,0,1,.684-5.4c.966-3.039,3.3-4.6,6.644-4.6,2.9,0,4.551,1.12,5.477,2.639h.04V.4a.38.38,0,0,1,.4-.4h2.577a.379.379,0,0,1,.4.4V26.79a.379.379,0,0,1-.4.4Zm19.573-6.2V18.873a.213.213,0,0,0-.242-.24H28.714c-3.343,0-4.793.96-4.793,3.119,0,1.96,1.45,3,4.027,3C30.969,24.751,32.821,23.352,32.821,20.992Zm.483,6.2a.379.379,0,0,1-.4-.4V25.111h-.04c-.886,1.439-2.779,2.519-5.718,2.519-3.664,0-6.483-1.879-6.483-5.758,0-4.038,2.819-5.918,7.531-5.918h4.39a.213.213,0,0,0,.242-.24v-1.4c0-2.639-1.048-3.759-4.631-3.759a7.536,7.536,0,0,0-4.672,1.36.359.359,0,0,1-.564-.04l-1.087-1.839a.421.421,0,0,1,.081-.56A10.756,10.756,0,0,1,28.512,7.6c5.477,0,7.571,1.8,7.571,6.518V26.79a.379.379,0,0,1-.4.4Zm8.015,7.2a.379.379,0,0,1-.4-.4V31.668a.379.379,0,0,1,.4-.4h.725c1.571,0,2.416-.68,3.262-2.879l.644-1.759L38.863,8.437c-.081-.24.04-.4.322-.4H42a.471.471,0,0,1,.483.4l5.074,13.835h.081L52.515,8.437a.47.47,0,0,1,.483-.4h2.739c.241,0,.4.16.322.4L48.448,28.67c-1.692,4.518-3.181,5.717-6.081,5.717Z" fill="#3e4581"/>
    </g>
    <path id="Vector-2" data-name="Vector" d="M15.3,8.117c0-2.959-1.973-4.8-5.356-4.8H3.826a.213.213,0,0,0-.242.24v9.117a.213.213,0,0,0,.242.24H9.947C13.33,12.915,15.3,11.076,15.3,8.117ZM.4,27.19a.379.379,0,0,1-.4-.4V.4A.379.379,0,0,1,.4,0h9.746c5.275,0,8.7,3.2,8.7,8.117s-3.423,8.117-8.7,8.117H3.826a.213.213,0,0,0-.242.24V26.79a.379.379,0,0,1-.4.4Zm26.781.2c-3.383,0-4.712-1.6-4.712-5.038V.4a.379.379,0,0,1,.4-.4h2.577a.379.379,0,0,1,.4.4V22.152c0,1.6.6,2.119,1.933,2.119h.765a.379.379,0,0,1,.4.4V26.99a.379.379,0,0,1-.4.4Zm16.512-6.4V18.873a.213.213,0,0,0-.242-.24H39.588c-3.343,0-4.793.96-4.793,3.119,0,1.96,1.45,3,4.027,3C41.843,24.751,43.7,23.351,43.7,20.992Zm.483,6.2a.379.379,0,0,1-.4-.4V25.111h-.04c-.886,1.439-2.779,2.519-5.718,2.519-3.664,0-6.483-1.879-6.483-5.758,0-4.038,2.819-5.918,7.531-5.918h4.39a.213.213,0,0,0,.242-.24v-1.4c0-2.639-1.048-3.759-4.631-3.759a7.536,7.536,0,0,0-4.672,1.36.359.359,0,0,1-.564-.04l-1.087-1.839a.421.421,0,0,1,.081-.56A10.756,10.756,0,0,1,39.387,7.6c5.477,0,7.571,1.8,7.571,6.518V26.79a.379.379,0,0,1-.4.4Zm20.539,0a.379.379,0,0,1-.4-.4v-11.2c0-3.079-1.41-4.878-4.309-4.878-2.617,0-4.43,1.84-4.43,4.678v11.4a.379.379,0,0,1-.4.4H52.6a.379.379,0,0,1-.4-.4V8.437a.379.379,0,0,1,.4-.4h2.577a.379.379,0,0,1,.4.4V10.2h.04a6.113,6.113,0,0,1,5.4-2.6c4.189,0,6.685,2.839,6.685,7.2v12a.379.379,0,0,1-.4.4Z" transform="translate(91.361 8.966)" fill="#3e4581"/>
    <path id="Vector-3" data-name="Vector" d="M57.754,14.691A18.523,18.523,0,0,0,51.445,4.43,18.736,18.736,0,0,0,24.979,6.717h0L1.086,34.989c-1.55,1.834-1.429,3.875.291,5.308s3.765,1.2,5.315-.638L21,22.731l9.521-11.266,0,0c.022-.026.042-.053.064-.079.13-.154.263-.3.4-.448l.067-.069A11.48,11.48,0,0,1,46.8,9.93s.027.017.078.045a11.3,11.3,0,0,1,1.293,16.06c-.13.154-.443.494-.465.517a11.5,11.5,0,0,1-15.824.895,11.665,11.665,0,0,1-2.38-2.726,2.047,2.047,0,0,0-3.3-.232l-3.064,3.635a18.883,18.883,0,0,0,4.17,4.869,18.736,18.736,0,0,0,26.466-2.287S59.03,24.653,57.754,14.691Z" transform="translate(0 3.801)" fill="#3e4581"/>
    <path id="Vector-4" data-name="Vector" d="M34.629,18.494,48.936,1.566C50.486-.268,52.531-.5,54.251.928s1.841,3.474.291,5.308L30.636,34.506A18.736,18.736,0,0,1,4.17,36.793,18.9,18.9,0,0,1,0,31.925l3.064-3.635a2.048,2.048,0,0,1,3.3.233,11.744,11.744,0,0,0,2.392,2.728,11.5,11.5,0,0,0,15.805-.894c.006-.006.369-.4.465-.518Z" transform="translate(23.136 0)" fill="#3e4581"/>
  </g>
</svg>
