<svg xmlns="http://www.w3.org/2000/svg" width="23" height="19" viewBox="0 0 23 19">
  <path id="twitter" d="M23,2.249a9.7,9.7,0,0,1-2.717.757A4.754,4.754,0,0,0,22.357.357a9.329,9.329,0,0,1-2.99,1.16A4.689,4.689,0,0,0,15.923,0a4.754,4.754,0,0,0-4.712,4.8,5.017,5.017,0,0,0,.109,1.093A13.275,13.275,0,0,1,1.6.874,4.888,4.888,0,0,0,.956,3.3,4.822,4.822,0,0,0,3.05,7.281a4.6,4.6,0,0,1-2.13-.59v.053A4.8,4.8,0,0,0,4.7,11.454a4.633,4.633,0,0,1-1.236.158,4.1,4.1,0,0,1-.893-.082,4.771,4.771,0,0,0,4.406,3.34,9.376,9.376,0,0,1-5.846,2.045A8.694,8.694,0,0,1,0,16.849,13.116,13.116,0,0,0,7.234,19c8.677,0,13.42-7.308,13.42-13.642,0-.212-.007-.417-.017-.62A9.493,9.493,0,0,0,23,2.249Z" fill="#3e4581"/>
</svg>
