<svg id="Group_543" data-name="Group 543" xmlns="http://www.w3.org/2000/svg" width="189.882" height="31.645" viewBox="0 0 189.882 31.645">
  <path id="Vector" d="M168.074,18.959c0-7.435,2.068-12.639,10.9-12.639s10.9,5.2,10.9,12.639S187.814,31.6,178.978,31.6C170.33,31.6,168.074,26.393,168.074,18.959Zm16.356,0c0-5.2-.752-8.178-5.264-8.178s-5.264,2.974-5.264,8.178.752,8.178,5.264,8.178S184.43,23.977,184.43,18.959ZM17.108,30.668c.188.186.376.372.564.372H19.74a.8.8,0,0,0,.752-.743V7.435a.8.8,0,0,0-.752-.743H15.792a.8.8,0,0,0-.752.743V25.464A12.158,12.158,0,0,1,9.4,26.951c-2.632,0-3.948-1.115-3.948-3.532V7.435A.8.8,0,0,0,4.7,6.691H.752A.8.8,0,0,0,0,7.435V23.791C0,28.438,2.256,31.6,8.46,31.6a13.383,13.383,0,0,0,7.9-2.6l.752,1.673ZM62.981,13.94c0-4.647-2.256-7.806-8.084-7.806A15.124,15.124,0,0,0,47,8.55c-.94-1.487-3.008-2.416-6.2-2.416a11.762,11.762,0,0,0-7.332,2.6l-.752-1.673c-.188-.186-.376-.372-.564-.372H30.08a.8.8,0,0,0-.752.743V30.3a.8.8,0,0,0,.752.743h4.136a.8.8,0,0,0,.752-.743V12.267a10.047,10.047,0,0,1,5.076-1.487c2.256,0,3.572.743,3.572,3.16V30.3a.8.8,0,0,0,.752.743H48.5a.8.8,0,0,0,.752-.743V12.267a10.047,10.047,0,0,1,5.076-1.487c2.068,0,3.572.743,3.572,3.16V30.3a.8.8,0,0,0,.752.743h4.136a.8.8,0,0,0,.752-.743L62.981,13.94ZM75.577,29a13.383,13.383,0,0,0,7.9,2.6c7.144,0,9.776-4.833,9.776-12.639S90.617,6.32,83.473,6.32a13.478,13.478,0,0,0-6.58,1.859V.743A.8.8,0,0,0,76.141,0H72c-.376,0-.564.372-.564.743V30.3a.8.8,0,0,0,.752.743h2.068c.188,0,.564-.186.564-.372Zm6.58-2.045a10.193,10.193,0,0,1-5.264-1.487v-13.2a10.726,10.726,0,0,1,5.264-1.487c4.888,0,5.452,3.717,5.452,8.178S87.045,26.951,82.157,26.951Zm31.4-15.985c-.564,0-1.316-.186-1.88-.186a11.793,11.793,0,0,0-6.2,1.487V30.3a.8.8,0,0,1-.752.743h-4.136a.8.8,0,0,1-.752-.743V7.435a.8.8,0,0,1,.752-.743h2.068c.188,0,.564.186.564.372l.752,1.673a12.828,12.828,0,0,1,7.708-2.6,6.466,6.466,0,0,1,1.88.186c.376,0,.752.558.752.929v2.974A.8.8,0,0,1,113.553,10.966Zm14.1,8.922c-2.444.372-3.948,1.115-3.948,3.717,0,1.859.752,3.532,3.76,3.532a8.863,8.863,0,0,0,5.264-1.673v-6.32ZM134.234,29a11.762,11.762,0,0,1-7.332,2.6c-6.392,0-8.46-3.9-8.46-7.806,0-5.2,3.384-7.435,9.024-7.992l5.452-.372V14.312c0-2.416-1.128-3.532-4.888-3.532a21.513,21.513,0,0,0-6.768,1.115h-.188a.8.8,0,0,1-.752-.743V7.992c0-.372.188-.558.564-.743a26.635,26.635,0,0,1,7.52-1.3c8.084,0,9.964,3.532,9.964,8.55V29.925a.8.8,0,0,1-.752.743H135.55c-.188,0-.564-.186-.564-.372l-.752-1.3Zm27.824-2.974h.188a.8.8,0,0,1,.752.743v3.16a.962.962,0,0,1-.376.743,14.867,14.867,0,0,1-6.392.929c-8.648,0-11.28-5.2-11.28-12.639S147.582,6.32,156.23,6.32a17.332,17.332,0,0,1,6.2.929.962.962,0,0,1,.376.743v3.16a.8.8,0,0,1-.752.743h-.188a17.569,17.569,0,0,0-5.452-.743c-4.7,0-6.2,3.16-6.2,7.992s1.316,7.992,6.2,7.992A43.128,43.128,0,0,0,162.058,26.022Z" fill="#3e4581"/>
</svg>
