<svg xmlns="http://www.w3.org/2000/svg" width="88" height="88" viewBox="0 0 88 88">
  <g id="Group_35678" data-name="Group 35678" transform="translate(-807 -1478)">
    <rect id="Fill" width="88" height="88" rx="40" transform="translate(807 1478)" fill="#ecf2ff"/>
    <path id="Icon_ionic-ios-globe" data-name="Icon ionic-ios-globe" d="M22.336,3.375h-.064A18.961,18.961,0,0,0,22.281,41.3h.064a18.961,18.961,0,1,0-.009-37.922ZM38.762,21.06H31.689a35.9,35.9,0,0,0-.893-6.946A27.77,27.77,0,0,0,35.326,12.2,16.332,16.332,0,0,1,38.762,21.06Zm-17.7,0H15.426a32.4,32.4,0,0,1,.8-6.3,27.733,27.733,0,0,0,4.831.647Zm0,2.552v5.643a27.851,27.851,0,0,0-4.831.647,32.4,32.4,0,0,1-.8-6.29Zm2.552,0H29.2a32.211,32.211,0,0,1-.8,6.281,27.209,27.209,0,0,0-4.786-.638Zm0-2.552V15.408A27.852,27.852,0,0,0,28.4,14.77a32.306,32.306,0,0,1,.8,6.29Zm9.973-10.747a25.324,25.324,0,0,1-3.464,1.413A18.822,18.822,0,0,0,27.7,6.757,16.5,16.5,0,0,1,33.585,10.312Zm-5.871,2.069a25.655,25.655,0,0,1-4.1.547V6.237C25.162,7.076,26.675,9.328,27.714,12.381ZM21.06,6.2v6.718a25.212,25.212,0,0,1-4.148-.556C17.969,9.282,19.5,7.03,21.06,6.2ZM16.9,6.784a18.97,18.97,0,0,0-2.4,4.932,25.894,25.894,0,0,1-3.418-1.4A16.249,16.249,0,0,1,16.9,6.784ZM9.346,12.208a27.22,27.22,0,0,0,4.485,1.9,34.451,34.451,0,0,0-.893,6.946H5.918A16.248,16.248,0,0,1,9.346,12.208Zm-3.437,11.4h7.019a35.806,35.806,0,0,0,.893,6.946,28.881,28.881,0,0,0-4.485,1.9A16.334,16.334,0,0,1,5.909,23.612Zm5.169,10.747a25.512,25.512,0,0,1,3.428-1.4A19.038,19.038,0,0,0,16.9,37.9,16.653,16.653,0,0,1,11.078,34.359Zm5.834-2.06a25.345,25.345,0,0,1,4.148-.556v6.727C19.492,37.641,17.969,35.38,16.912,32.3Zm6.7,6.135v-6.7a25.655,25.655,0,0,1,4.1.547C26.675,35.344,25.162,37.6,23.612,38.434Zm4.1-.52a18.822,18.822,0,0,0,2.416-4.968,24.907,24.907,0,0,1,3.464,1.422A16.685,16.685,0,0,1,27.714,37.915Zm7.612-5.451A27.77,27.77,0,0,0,30.8,30.549a35.711,35.711,0,0,0,.893-6.937h7.074A16.26,16.26,0,0,1,35.326,32.463Z" transform="translate(829.125 1500.125)" fill="#3e72ff" stroke="#3e72ff" stroke-width="0.5"/>
  </g>
</svg>
