<svg xmlns="http://www.w3.org/2000/svg" width="528" height="454.362" viewBox="0 0 528 454.362">
  <g id="Abstract" transform="translate(0)">
    <path id="Vector" d="M163.828,59.375a7.812,7.812,0,0,0-6.306-5.317l-47.272-6.869L89.111,4.354a7.812,7.812,0,0,0-14.01,0L53.96,47.19,6.688,54.059A7.811,7.811,0,0,0,2.359,67.383l34.206,33.342-8.075,47.08a7.812,7.812,0,0,0,11.334,8.235l42.281-22.228,42.281,22.228a7.812,7.812,0,0,0,11.335-8.235l-8.075-47.08,34.206-33.342a7.813,7.813,0,0,0,1.976-8.008Z" transform="translate(375.58 0) rotate(21.844)" fill="#fcb901"/>
    <path id="Vector-2" data-name="Vector" d="M364.626,317.035c-19.613-32.484-40.451-64.354-60.064-96.837-3.677-6.129-14.1-3.678-13.485,3.677,0,14.1.613,27.581.613,41.677-9.806-10.419-12.258-22.678-14.1-37.387-1.226-6.129-3.677-12.872-10.418-14.71-10.419-3.064-22.064,7.355-30.032,12.871-20.226,14.1-38.613,30.646-60.677,42.291-25.742,12.871-26.355-5.516-20.839-25.742,5.516-21.451,15.322-42.9,26.355-61.9,19.613-33.1,42.291-67.419,47.806-106.032,3.065-21.451-7.968-53.935-34.936-52.709-33.1,1.226-71.1,25.742-92.548,50.258-12.258,12.258-82.129,104.193-88.87,51.484C8.531,85.36,40.4,38.167,59.4,6.3c2.452-4.29-3.677-8.581-6.742-4.9C28.757,30.811,9.757,68.2,1.177,105.585c-4.29,20.226,2.452,57.613,31.871,49.645,34.322-9.193,57-47.806,79.064-73.548,13.484-16.548,34.935-28.806,53.322-38.613,39.226-20.839,57,9.806,47.193,45.355-12.257,43.516-43.516,79.063-61.29,120.128-6.129,14.71-28.193,63.741-4.29,76,27.58,14.1,64.355-20.84,83.967-36.161-1.226.613,31.258-25.742,33.1-20.225s1.839,12.257,3.066,18.386c2.451,11.645,7.355,20.84,15.322,28.193a167.093,167.093,0,0,0-34.935,1.839c-6.129,1.226-6.742,10.419-1.839,13.484,34.935,19.613,74.161,24.516,111.548,37.387C362.788,329.906,368.3,322.552,364.626,317.035Zm-66.193-31.257c3.677,0,4.9-3.065,4.29-5.516a6.437,6.437,0,0,0,3.064-5.516V250.229c12.258,19.613,24.516,38.614,36.774,58.226-23.29-6.742-47.193-11.645-69.257-20.84C281.272,287,289.853,286.391,298.433,285.778Z" transform="translate(0 353.15) rotate(-72.023)" fill="#d5dff3"/>
  </g>
</svg>
